<svg xmlns="http://www.w3.org/2000/svg" xmlns:xlink="http://www.w3.org/1999/xlink" contentStyleType="text/css" height="1949px" preserveAspectRatio="none" style="width:1741px;height:1949px;background:#FFFFFF;" version="1.1" viewBox="0 0 1741 1949" width="1741px" zoomAndPan="magnify"><defs/><g><!--cluster com--><g id="cluster_com"><path d="M8.5,338.0137 L38.2861,338.0137 A3.75,3.75 0 0 1 40.7861,340.5137 L47.7861,362.6348 L1731.5,362.6348 A2.5,2.5 0 0 1 1734,365.1348 L1734,1939.5137 A2.5,2.5 0 0 1 1731.5,1942.0137 L8.5,1942.0137 A2.5,2.5 0 0 1 6,1939.5137 L6,340.5137 A2.5,2.5 0 0 1 8.5,338.0137 " fill="none" style="stroke:#000000;stroke-width:1.5;"/><line style="stroke:#000000;stroke-width:1.5;" x1="6" x2="47.7861" y1="362.6348" y2="362.6348"/><text fill="#000000" font-family="sans-serif" font-size="14" font-weight="bold" lengthAdjust="spacing" textLength="28.7861" x="10" y="355.1211">com</text></g><!--cluster vnova--><g id="cluster_vnova"><path d="M32.5,383.0137 L73.9619,383.0137 A3.75,3.75 0 0 1 76.4619,385.5137 L83.4619,407.6348 L1707.5,407.6348 A2.5,2.5 0 0 1 1710,410.1348 L1710,1915.5137 A2.5,2.5 0 0 1 1707.5,1918.0137 L32.5,1918.0137 A2.5,2.5 0 0 1 30,1915.5137 L30,385.5137 A2.5,2.5 0 0 1 32.5,383.0137 " fill="none" style="stroke:#000000;stroke-width:1.5;"/><line style="stroke:#000000;stroke-width:1.5;" x1="30" x2="83.4619" y1="407.6348" y2="407.6348"/><text fill="#000000" font-family="sans-serif" font-size="14" font-weight="bold" lengthAdjust="spacing" textLength="40.4619" x="34" y="400.1211">vnova</text></g><!--cluster lcevc--><g id="cluster_lcevc"><path d="M56.5,428.0137 L92.5342,428.0137 A3.75,3.75 0 0 1 95.0342,430.5137 L102.0342,452.6348 L1683.5,452.6348 A2.5,2.5 0 0 1 1686,455.1348 L1686,1891.5137 A2.5,2.5 0 0 1 1683.5,1894.0137 L56.5,1894.0137 A2.5,2.5 0 0 1 54,1891.5137 L54,430.5137 A2.5,2.5 0 0 1 56.5,428.0137 " fill="none" style="stroke:#000000;stroke-width:1.5;"/><line style="stroke:#000000;stroke-width:1.5;" x1="54" x2="102.0342" y1="452.6348" y2="452.6348"/><text fill="#000000" font-family="sans-serif" font-size="14" font-weight="bold" lengthAdjust="spacing" textLength="35.0342" x="58" y="445.1211">lcevc</text></g><!--cluster decoder--><g id="cluster_decoder"><path d="M80.5,473.0137 L135.9619,473.0137 A3.75,3.75 0 0 1 138.4619,475.5137 L145.4619,497.6348 L1659.5,497.6348 A2.5,2.5 0 0 1 1662,500.1348 L1662,1867.5137 A2.5,2.5 0 0 1 1659.5,1870.0137 L80.5,1870.0137 A2.5,2.5 0 0 1 78,1867.5137 L78,475.5137 A2.5,2.5 0 0 1 80.5,473.0137 " fill="none" style="stroke:#000000;stroke-width:1.5;"/><line style="stroke:#000000;stroke-width:1.5;" x1="78" x2="145.4619" y1="497.6348" y2="497.6348"/><text fill="#000000" font-family="sans-serif" font-size="14" font-weight="bold" lengthAdjust="spacing" textLength="54.4619" x="82" y="490.1211">decoder</text></g><!--cluster dil--><g id="cluster_dil"><path d="M1450.5,650.0137 L1467.8311,650.0137 A3.75,3.75 0 0 1 1470.3311,652.5137 L1477.3311,674.6348 L1635.5,674.6348 A2.5,2.5 0 0 1 1638,677.1348 L1638,748.5137 A2.5,2.5 0 0 1 1635.5,751.0137 L1450.5,751.0137 A2.5,2.5 0 0 1 1448,748.5137 L1448,652.5137 A2.5,2.5 0 0 1 1450.5,650.0137 " fill="none" style="stroke:#000000;stroke-width:1.5;"/><line style="stroke:#000000;stroke-width:1.5;" x1="1448" x2="1477.3311" y1="674.6348" y2="674.6348"/><text fill="#000000" font-family="sans-serif" font-size="14" font-weight="bold" lengthAdjust="spacing" textLength="16.3311" x="1452" y="667.1211">dil</text></g><!--cluster androidx--><g id="cluster_androidx"><path d="M743.5,6.0137 L803.6172,6.0137 A3.75,3.75 0 0 1 806.1172,8.5137 L813.1172,30.6348 L1273.5,30.6348 A2.5,2.5 0 0 1 1276,33.1348 L1276,311.5137 A2.5,2.5 0 0 1 1273.5,314.0137 L743.5,314.0137 A2.5,2.5 0 0 1 741,311.5137 L741,8.5137 A2.5,2.5 0 0 1 743.5,6.0137 " fill="none" style="stroke:#000000;stroke-width:1.5;"/><line style="stroke:#000000;stroke-width:1.5;" x1="741" x2="813.1172" y1="30.6348" y2="30.6348"/><text fill="#000000" font-family="sans-serif" font-size="14" font-weight="bold" lengthAdjust="spacing" textLength="59.1172" x="745" y="23.1211">androidx</text></g><!--cluster media3--><g id="cluster_media3"><path d="M767.5,51.0137 L816.748,51.0137 A3.75,3.75 0 0 1 819.248,53.5137 L826.248,75.6348 L1249.5,75.6348 A2.5,2.5 0 0 1 1252,78.1348 L1252,287.5137 A2.5,2.5 0 0 1 1249.5,290.0137 L767.5,290.0137 A2.5,2.5 0 0 1 765,287.5137 L765,53.5137 A2.5,2.5 0 0 1 767.5,51.0137 " fill="none" style="stroke:#000000;stroke-width:1.5;"/><line style="stroke:#000000;stroke-width:1.5;" x1="765" x2="826.248" y1="75.6348" y2="75.6348"/><text fill="#000000" font-family="sans-serif" font-size="14" font-weight="bold" lengthAdjust="spacing" textLength="48.248" x="769" y="68.1211">media3</text></g><!--cluster exoplayer--><g id="cluster_exoplayer"><path d="M791.5,96.0137 L857.8721,96.0137 A3.75,3.75 0 0 1 860.3721,98.5137 L867.3721,120.6348 L1225.5,120.6348 A2.5,2.5 0 0 1 1228,123.1348 L1228,263.5137 A2.5,2.5 0 0 1 1225.5,266.0137 L791.5,266.0137 A2.5,2.5 0 0 1 789,263.5137 L789,98.5137 A2.5,2.5 0 0 1 791.5,96.0137 " fill="none" style="stroke:#000000;stroke-width:1.5;"/><line style="stroke:#000000;stroke-width:1.5;" x1="789" x2="867.3721" y1="120.6348" y2="120.6348"/><text fill="#000000" font-family="sans-serif" font-size="14" font-weight="bold" lengthAdjust="spacing" textLength="65.3721" x="793" y="113.1211">exoplayer</text></g><!--cluster mediacodec--><g id="cluster_mediacodec"><path d="M815.5,141.0137 L897.4238,141.0137 A3.75,3.75 0 0 1 899.9238,143.5137 L906.9238,165.6348 L1002.5,165.6348 A2.5,2.5 0 0 1 1005,168.1348 L1005,239.5137 A2.5,2.5 0 0 1 1002.5,242.0137 L815.5,242.0137 A2.5,2.5 0 0 1 813,239.5137 L813,143.5137 A2.5,2.5 0 0 1 815.5,141.0137 " fill="none" style="stroke:#000000;stroke-width:1.5;"/><line style="stroke:#000000;stroke-width:1.5;" x1="813" x2="906.9238" y1="165.6348" y2="165.6348"/><text fill="#000000" font-family="sans-serif" font-size="14" font-weight="bold" lengthAdjust="spacing" textLength="80.9238" x="817" y="158.1211">mediacodec</text></g><!--class LcevcRenderersFactory--><g id="elem_LcevcRenderersFactory"><rect codeLine="1" fill="#F1F1F1" height="48" id="LcevcRenderersFactory" rx="2.5" ry="2.5" style="stroke:#181818;stroke-width:0.5;" width="180.6133" x="1248.5" y="687.0137"/><ellipse cx="1263.5" cy="703.0137" fill="#ADD1B2" rx="11" ry="11" style="stroke:#181818;stroke-width:1.0;"/><path d="M1266.2656,698.8887 Q1266.4219,698.6699 1266.6094,698.5605 Q1266.7969,698.4512 1267.0156,698.4512 Q1267.3906,698.4512 1267.625,698.7168 Q1267.8594,698.9668 1267.8594,699.5762 L1267.8594,701.0293 Q1267.8594,701.6387 1267.625,701.9043 Q1267.3906,702.1699 1267.0156,702.1699 Q1266.6719,702.1699 1266.4688,701.9668 Q1266.2656,701.7793 1266.1563,701.2637 Q1266.1094,700.9043 1265.9219,700.7168 Q1265.5938,700.3418 1264.9844,700.123 Q1264.375,699.9043 1263.75,699.9043 Q1262.9844,699.9043 1262.3438,700.2324 Q1261.7188,700.5605 1261.2188,701.3105 Q1260.7344,702.0605 1260.7344,703.0918 L1260.7344,704.1855 Q1260.7344,705.4199 1261.625,706.248 Q1262.5156,707.0605 1264.1094,707.0605 Q1265.0469,707.0605 1265.7031,706.8105 Q1266.0938,706.6543 1266.5156,706.2168 Q1266.7813,705.9512 1266.9219,705.873 Q1267.0781,705.7949 1267.2813,705.7949 Q1267.6094,705.7949 1267.8594,706.0605 Q1268.125,706.3105 1268.125,706.6543 Q1268.125,706.998 1267.7813,707.4043 Q1267.2813,707.9824 1266.4844,708.3105 Q1265.4063,708.7637 1264.1094,708.7637 Q1262.5938,708.7637 1261.3906,708.1387 Q1260.4063,707.6387 1259.7188,706.5762 Q1259.0313,705.498 1259.0313,704.2168 L1259.0313,703.0605 Q1259.0313,701.7324 1259.6406,700.5918 Q1260.2656,699.4355 1261.3594,698.8262 Q1262.4531,698.2012 1263.6875,698.2012 Q1264.4219,698.2012 1265.0625,698.373 Q1265.7188,698.5293 1266.2656,698.8887 Z " fill="#000000"/><text fill="#000000" font-family="sans-serif" font-size="14" lengthAdjust="spacing" textLength="148.6133" x="1277.5" y="708.8105">LcevcRenderersFactory</text><line style="stroke:#181818;stroke-width:0.5;" x1="1249.5" x2="1428.1133" y1="719.0137" y2="719.0137"/><line style="stroke:#181818;stroke-width:0.5;" x1="1249.5" x2="1428.1133" y1="727.0137" y2="727.0137"/></g><!--class LcevcMediaCodecAdapterFactory--><g id="elem_LcevcMediaCodecAdapterFactory"><rect codeLine="3" fill="#F1F1F1" height="66.6211" id="LcevcMediaCodecAdapterFactory" rx="2.5" ry="2.5" style="stroke:#181818;stroke-width:0.5;" width="469.5908" x="237" y="1139.5137"/><ellipse cx="362.1045" cy="1155.5137" fill="#ADD1B2" rx="11" ry="11" style="stroke:#181818;stroke-width:1.0;"/><path d="M364.8701,1151.3887 Q365.0264,1151.1699 365.2139,1151.0605 Q365.4014,1150.9512 365.6201,1150.9512 Q365.9951,1150.9512 366.2295,1151.2168 Q366.4639,1151.4668 366.4639,1152.0762 L366.4639,1153.5293 Q366.4639,1154.1387 366.2295,1154.4043 Q365.9951,1154.6699 365.6201,1154.6699 Q365.2764,1154.6699 365.0732,1154.4668 Q364.8701,1154.2793 364.7607,1153.7637 Q364.7139,1153.4043 364.5264,1153.2168 Q364.1982,1152.8418 363.5889,1152.623 Q362.9795,1152.4043 362.3545,1152.4043 Q361.5889,1152.4043 360.9482,1152.7324 Q360.3232,1153.0605 359.8232,1153.8105 Q359.3389,1154.5605 359.3389,1155.5918 L359.3389,1156.6855 Q359.3389,1157.9199 360.2295,1158.748 Q361.1201,1159.5605 362.7139,1159.5605 Q363.6514,1159.5605 364.3076,1159.3105 Q364.6982,1159.1543 365.1201,1158.7168 Q365.3857,1158.4512 365.5264,1158.373 Q365.6826,1158.2949 365.8857,1158.2949 Q366.2139,1158.2949 366.4639,1158.5605 Q366.7295,1158.8105 366.7295,1159.1543 Q366.7295,1159.498 366.3857,1159.9043 Q365.8857,1160.4824 365.0889,1160.8105 Q364.0107,1161.2637 362.7139,1161.2637 Q361.1982,1161.2637 359.9951,1160.6387 Q359.0107,1160.1387 358.3232,1159.0762 Q357.6357,1157.998 357.6357,1156.7168 L357.6357,1155.5605 Q357.6357,1154.2324 358.2451,1153.0918 Q358.8701,1151.9355 359.9639,1151.3262 Q361.0576,1150.7012 362.292,1150.7012 Q363.0264,1150.7012 363.667,1150.873 Q364.3232,1151.0293 364.8701,1151.3887 Z " fill="#000000"/><text fill="#000000" font-family="sans-serif" font-size="14" lengthAdjust="spacing" textLength="210.8818" x="382.6045" y="1161.3105">LcevcMediaCodecAdapterFactory</text><line style="stroke:#181818;stroke-width:0.5;" x1="238" x2="705.5908" y1="1171.5137" y2="1171.5137"/><line style="stroke:#181818;stroke-width:0.5;" x1="238" x2="705.5908" y1="1179.5137" y2="1179.5137"/><ellipse cx="248" cy="1194.3242" fill="#84BE84" rx="3" ry="3" style="stroke:#038048;stroke-width:1.0;"/><text fill="#000000" font-family="sans-serif" font-size="14" lengthAdjust="spacing" textLength="443.5908" x="257" y="1198.6211">MediaCodecAdapter createAdapter(MediaCodecAdapter.Configuration)</text></g><!--class BuildConfig--><g id="elem_BuildConfig"><rect codeLine="7" fill="#F1F1F1" height="103.8633" id="BuildConfig" rx="2.5" ry="2.5" style="stroke:#181818;stroke-width:0.5;" width="250.082" x="963" y="659.0137"/><ellipse cx="1047.9912" cy="675.0137" fill="#ADD1B2" rx="11" ry="11" style="stroke:#181818;stroke-width:1.0;"/><path d="M1050.7568,670.8887 Q1050.9131,670.6699 1051.1006,670.5605 Q1051.2881,670.4512 1051.5068,670.4512 Q1051.8818,670.4512 1052.1162,670.7168 Q1052.3506,670.9668 1052.3506,671.5762 L1052.3506,673.0293 Q1052.3506,673.6387 1052.1162,673.9043 Q1051.8818,674.1699 1051.5068,674.1699 Q1051.1631,674.1699 1050.96,673.9668 Q1050.7568,673.7793 1050.6475,673.2637 Q1050.6006,672.9043 1050.4131,672.7168 Q1050.085,672.3418 1049.4756,672.123 Q1048.8662,671.9043 1048.2412,671.9043 Q1047.4756,671.9043 1046.835,672.2324 Q1046.21,672.5605 1045.71,673.3105 Q1045.2256,674.0605 1045.2256,675.0918 L1045.2256,676.1855 Q1045.2256,677.4199 1046.1162,678.248 Q1047.0068,679.0605 1048.6006,679.0605 Q1049.5381,679.0605 1050.1943,678.8105 Q1050.585,678.6543 1051.0068,678.2168 Q1051.2725,677.9512 1051.4131,677.873 Q1051.5693,677.7949 1051.7725,677.7949 Q1052.1006,677.7949 1052.3506,678.0605 Q1052.6162,678.3105 1052.6162,678.6543 Q1052.6162,678.998 1052.2725,679.4043 Q1051.7725,679.9824 1050.9756,680.3105 Q1049.8975,680.7637 1048.6006,680.7637 Q1047.085,680.7637 1045.8818,680.1387 Q1044.8975,679.6387 1044.21,678.5762 Q1043.5225,677.498 1043.5225,676.2168 L1043.5225,675.0605 Q1043.5225,673.7324 1044.1318,672.5918 Q1044.7568,671.4355 1045.8506,670.8262 Q1046.9443,670.2012 1048.1787,670.2012 Q1048.9131,670.2012 1049.5537,670.373 Q1050.21,670.5293 1050.7568,670.8887 Z " fill="#000000"/><text fill="#000000" font-family="sans-serif" font-size="14" lengthAdjust="spacing" textLength="71.5996" x="1068.4912" y="680.8105">BuildConfig</text><line style="stroke:#181818;stroke-width:0.5;" x1="964" x2="1212.082" y1="691.0137" y2="691.0137"/><ellipse cx="974" cy="705.8242" fill="none" rx="3" ry="3" style="stroke:#038048;stroke-width:1.0;"/><text fill="#000000" font-family="sans-serif" font-size="14" lengthAdjust="spacing" text-decoration="underline" textLength="103.5029" x="983" y="710.1211">boolean DEBUG</text><ellipse cx="974" cy="724.4453" fill="none" rx="3" ry="3" style="stroke:#038048;stroke-width:1.0;"/><text fill="#000000" font-family="sans-serif" font-size="14" lengthAdjust="spacing" text-decoration="underline" textLength="224.082" x="983" y="728.7422">String LIBRARY_PACKAGE_NAME</text><ellipse cx="974" cy="743.0664" fill="none" rx="3" ry="3" style="stroke:#038048;stroke-width:1.0;"/><text fill="#000000" font-family="sans-serif" font-size="14" lengthAdjust="spacing" text-decoration="underline" textLength="126.0479" x="983" y="747.3633">String BUILD_TYPE</text><line style="stroke:#181818;stroke-width:0.5;" x1="964" x2="1212.082" y1="754.877" y2="754.877"/></g><!--class LcevcSynchronousMediaCodecAdapter--><g id="elem_LcevcSynchronousMediaCodecAdapter"><rect codeLine="13" fill="#F1F1F1" height="401.8008" id="LcevcSynchronousMediaCodecAdapter" rx="2.5" ry="2.5" style="stroke:#181818;stroke-width:0.5;" width="477.3291" x="450.5" y="510.0137"/><ellipse cx="561.9531" cy="526.0137" fill="#ADD1B2" rx="11" ry="11" style="stroke:#181818;stroke-width:1.0;"/><path d="M564.7188,521.8887 Q564.875,521.6699 565.0625,521.5605 Q565.25,521.4512 565.4688,521.4512 Q565.8438,521.4512 566.0781,521.7168 Q566.3125,521.9668 566.3125,522.5762 L566.3125,524.0293 Q566.3125,524.6387 566.0781,524.9043 Q565.8438,525.1699 565.4688,525.1699 Q565.125,525.1699 564.9219,524.9668 Q564.7188,524.7793 564.6094,524.2637 Q564.5625,523.9043 564.375,523.7168 Q564.0469,523.3418 563.4375,523.123 Q562.8281,522.9043 562.2031,522.9043 Q561.4375,522.9043 560.7969,523.2324 Q560.1719,523.5605 559.6719,524.3105 Q559.1875,525.0605 559.1875,526.0918 L559.1875,527.1855 Q559.1875,528.4199 560.0781,529.248 Q560.9688,530.0605 562.5625,530.0605 Q563.5,530.0605 564.1563,529.8105 Q564.5469,529.6543 564.9688,529.2168 Q565.2344,528.9512 565.375,528.873 Q565.5313,528.7949 565.7344,528.7949 Q566.0625,528.7949 566.3125,529.0605 Q566.5781,529.3105 566.5781,529.6543 Q566.5781,529.998 566.2344,530.4043 Q565.7344,530.9824 564.9375,531.3105 Q563.8594,531.7637 562.5625,531.7637 Q561.0469,531.7637 559.8438,531.1387 Q558.8594,530.6387 558.1719,529.5762 Q557.4844,528.498 557.4844,527.2168 L557.4844,526.0605 Q557.4844,524.7324 558.0938,523.5918 Q558.7188,522.4355 559.8125,521.8262 Q560.9063,521.2012 562.1406,521.2012 Q562.875,521.2012 563.5156,521.373 Q564.1719,521.5293 564.7188,521.8887 Z " fill="#000000"/><text fill="#000000" font-family="sans-serif" font-size="14" lengthAdjust="spacing" textLength="245.9229" x="582.4531" y="531.8105">LcevcSynchronousMediaCodecAdapter</text><line style="stroke:#181818;stroke-width:0.5;" x1="451.5" x2="926.8291" y1="542.0137" y2="542.0137"/><line style="stroke:#181818;stroke-width:0.5;" x1="451.5" x2="926.8291" y1="550.0137" y2="550.0137"/><ellipse cx="461.5" cy="564.8242" fill="#84BE84" rx="3" ry="3" style="stroke:#038048;stroke-width:1.0;"/><text fill="#000000" font-family="sans-serif" font-size="14" lengthAdjust="spacing" textLength="199.2471" x="470.5" y="569.1211">boolean needsReconfiguration()</text><ellipse cx="461.5" cy="583.4453" fill="#84BE84" rx="3" ry="3" style="stroke:#038048;stroke-width:1.0;"/><text fill="#000000" font-family="sans-serif" font-size="14" lengthAdjust="spacing" textLength="185.2402" x="470.5" y="587.7422">int dequeueInputBufferIndex()</text><ellipse cx="461.5" cy="602.0664" fill="#84BE84" rx="3" ry="3" style="stroke:#038048;stroke-width:1.0;"/><text fill="#000000" font-family="sans-serif" font-size="14" lengthAdjust="spacing" textLength="339.3223" x="470.5" y="606.3633">int dequeueOutputBufferIndex(MediaCodec.BufferInfo)</text><ellipse cx="461.5" cy="620.6875" fill="#84BE84" rx="3" ry="3" style="stroke:#038048;stroke-width:1.0;"/><text fill="#000000" font-family="sans-serif" font-size="14" lengthAdjust="spacing" textLength="201.5098" x="470.5" y="624.9844">MediaFormat getOutputFormat()</text><ellipse cx="461.5" cy="639.3086" fill="#84BE84" rx="3" ry="3" style="stroke:#038048;stroke-width:1.0;"/><text fill="#000000" font-family="sans-serif" font-size="14" lengthAdjust="spacing" textLength="181.3164" x="470.5" y="643.6055">ByteBuffer getInputBuffer(int)</text><ellipse cx="461.5" cy="657.9297" fill="#84BE84" rx="3" ry="3" style="stroke:#038048;stroke-width:1.0;"/><text fill="#000000" font-family="sans-serif" font-size="14" lengthAdjust="spacing" textLength="192.2061" x="470.5" y="662.2266">ByteBuffer getOutputBuffer(int)</text><ellipse cx="461.5" cy="676.5508" fill="#84BE84" rx="3" ry="3" style="stroke:#038048;stroke-width:1.0;"/><text fill="#000000" font-family="sans-serif" font-size="14" lengthAdjust="spacing" textLength="270.8057" x="470.5" y="680.8477">ByteBuffer getMediaCodecOutputBuffer(int)</text><ellipse cx="461.5" cy="695.1719" fill="#84BE84" rx="3" ry="3" style="stroke:#038048;stroke-width:1.0;"/><text fill="#000000" font-family="sans-serif" font-size="14" lengthAdjust="spacing" textLength="247.4883" x="470.5" y="699.4688">void queueInputBuffer(int,int,int,long,int)</text><ellipse cx="461.5" cy="713.793" fill="#84BE84" rx="3" ry="3" style="stroke:#038048;stroke-width:1.0;"/><text fill="#000000" font-family="sans-serif" font-size="14" lengthAdjust="spacing" textLength="341.6465" x="470.5" y="718.0898">void queueSecureInputBuffer(int,int,CryptoInfo,long,int)</text><ellipse cx="461.5" cy="732.4141" fill="#84BE84" rx="3" ry="3" style="stroke:#038048;stroke-width:1.0;"/><text fill="#000000" font-family="sans-serif" font-size="14" lengthAdjust="spacing" textLength="232.6953" x="470.5" y="736.7109">void releaseOutputBuffer(int,boolean)</text><ellipse cx="461.5" cy="751.0352" fill="#84BE84" rx="3" ry="3" style="stroke:#038048;stroke-width:1.0;"/><text fill="#000000" font-family="sans-serif" font-size="14" lengthAdjust="spacing" textLength="209.3369" x="470.5" y="755.332">void releaseOutputBuffer(int,long)</text><ellipse cx="461.5" cy="769.6563" fill="#84BE84" rx="3" ry="3" style="stroke:#038048;stroke-width:1.0;"/><text fill="#000000" font-family="sans-serif" font-size="14" lengthAdjust="spacing" textLength="68.4688" x="470.5" y="773.9531">void flush()</text><ellipse cx="461.5" cy="788.2773" fill="#84BE84" rx="3" ry="3" style="stroke:#038048;stroke-width:1.0;"/><text fill="#000000" font-family="sans-serif" font-size="14" lengthAdjust="spacing" textLength="84.8135" x="470.5" y="792.5742">void release()</text><ellipse cx="461.5" cy="806.8984" fill="#84BE84" rx="3" ry="3" style="stroke:#038048;stroke-width:1.0;"/><text fill="#000000" font-family="sans-serif" font-size="14" lengthAdjust="spacing" textLength="451.3291" x="470.5" y="811.1953">void setOnFrameRenderedListener(OnFrameRenderedListener,Handler)</text><ellipse cx="461.5" cy="825.5195" fill="#84BE84" rx="3" ry="3" style="stroke:#038048;stroke-width:1.0;"/><text fill="#000000" font-family="sans-serif" font-size="14" lengthAdjust="spacing" textLength="196.0957" x="470.5" y="829.8164">void setOutputSurface(Surface)</text><ellipse cx="461.5" cy="844.1406" fill="#84BE84" rx="3" ry="3" style="stroke:#038048;stroke-width:1.0;"/><text fill="#000000" font-family="sans-serif" font-size="14" lengthAdjust="spacing" textLength="173.5234" x="470.5" y="848.4375">void setParameters(Bundle)</text><ellipse cx="461.5" cy="862.7617" fill="#84BE84" rx="3" ry="3" style="stroke:#038048;stroke-width:1.0;"/><text fill="#000000" font-family="sans-serif" font-size="14" lengthAdjust="spacing" textLength="189.1025" x="470.5" y="867.0586">void setVideoScalingMode(int)</text><ellipse cx="461.5" cy="881.3828" fill="#84BE84" rx="3" ry="3" style="stroke:#038048;stroke-width:1.0;"/><text fill="#000000" font-family="sans-serif" font-size="14" lengthAdjust="spacing" textLength="190.6338" x="470.5" y="885.6797">PersistableBundle getMetrics()</text><ellipse cx="461.5" cy="900.0039" fill="#84BE84" rx="3" ry="3" style="stroke:#038048;stroke-width:1.0;"/><text fill="#000000" font-family="sans-serif" font-size="14" lengthAdjust="spacing" textLength="167.3096" x="470.5" y="904.3008">Image getOutputImage(int)</text></g><!--class LcevcSynchronousMediaCodecAdapter$Factory--><g id="elem_LcevcSynchronousMediaCodecAdapter$Factory"><rect codeLine="35" fill="#F1F1F1" height="66.6211" id="LcevcSynchronousMediaCodecAdapter$Factory" rx="2.5" ry="2.5" style="stroke:#181818;stroke-width:0.5;" width="338.0674" x="742" y="1139.5137"/><ellipse cx="759.5572" cy="1155.5137" fill="#ADD1B2" rx="11" ry="11" style="stroke:#181818;stroke-width:1.0;"/><path d="M762.3228,1151.3887 Q762.4791,1151.1699 762.6666,1151.0605 Q762.8541,1150.9512 763.0728,1150.9512 Q763.4478,1150.9512 763.6822,1151.2168 Q763.9166,1151.4668 763.9166,1152.0762 L763.9166,1153.5293 Q763.9166,1154.1387 763.6822,1154.4043 Q763.4478,1154.6699 763.0728,1154.6699 Q762.7291,1154.6699 762.5259,1154.4668 Q762.3228,1154.2793 762.2134,1153.7637 Q762.1666,1153.4043 761.9791,1153.2168 Q761.6509,1152.8418 761.0416,1152.623 Q760.4322,1152.4043 759.8072,1152.4043 Q759.0416,1152.4043 758.4009,1152.7324 Q757.7759,1153.0605 757.2759,1153.8105 Q756.7916,1154.5605 756.7916,1155.5918 L756.7916,1156.6855 Q756.7916,1157.9199 757.6822,1158.748 Q758.5728,1159.5605 760.1666,1159.5605 Q761.1041,1159.5605 761.7603,1159.3105 Q762.1509,1159.1543 762.5728,1158.7168 Q762.8384,1158.4512 762.9791,1158.373 Q763.1353,1158.2949 763.3384,1158.2949 Q763.6666,1158.2949 763.9166,1158.5605 Q764.1822,1158.8105 764.1822,1159.1543 Q764.1822,1159.498 763.8384,1159.9043 Q763.3384,1160.4824 762.5416,1160.8105 Q761.4634,1161.2637 760.1666,1161.2637 Q758.6509,1161.2637 757.4478,1160.6387 Q756.4634,1160.1387 755.7759,1159.0762 Q755.0884,1157.998 755.0884,1156.7168 L755.0884,1155.5605 Q755.0884,1154.2324 755.6978,1153.0918 Q756.3228,1151.9355 757.4166,1151.3262 Q758.5103,1150.7012 759.7447,1150.7012 Q760.4791,1150.7012 761.1197,1150.873 Q761.7759,1151.0293 762.3228,1151.3887 Z " fill="#000000"/><text fill="#000000" font-family="sans-serif" font-size="14" lengthAdjust="spacing" textLength="300.3848" x="774.1254" y="1161.3105">LcevcSynchronousMediaCodecAdapter$Factory</text><line style="stroke:#181818;stroke-width:0.5;" x1="743" x2="1079.0674" y1="1171.5137" y2="1171.5137"/><line style="stroke:#181818;stroke-width:0.5;" x1="743" x2="1079.0674" y1="1179.5137" y2="1179.5137"/><ellipse cx="753" cy="1194.3242" fill="#84BE84" rx="3" ry="3" style="stroke:#038048;stroke-width:1.0;"/><text fill="#000000" font-family="sans-serif" font-size="14" lengthAdjust="spacing" textLength="312.0674" x="762" y="1198.6211">MediaCodecAdapter createAdapter(Configuration)</text></g><!--class LcevcDecoder--><g id="elem_LcevcDecoder"><rect codeLine="39" fill="#F1F1F1" height="401.8008" id="LcevcDecoder" rx="2.5" ry="2.5" style="stroke:#181818;stroke-width:0.5;" width="483.5293" x="1138" y="972.0137"/><ellipse cx="1330.77" cy="988.0137" fill="#ADD1B2" rx="11" ry="11" style="stroke:#181818;stroke-width:1.0;"/><path d="M1333.5356,983.8887 Q1333.6919,983.6699 1333.8794,983.5605 Q1334.0669,983.4512 1334.2856,983.4512 Q1334.6606,983.4512 1334.895,983.7168 Q1335.1294,983.9668 1335.1294,984.5762 L1335.1294,986.0293 Q1335.1294,986.6387 1334.895,986.9043 Q1334.6606,987.1699 1334.2856,987.1699 Q1333.9419,987.1699 1333.7388,986.9668 Q1333.5356,986.7793 1333.4263,986.2637 Q1333.3794,985.9043 1333.1919,985.7168 Q1332.8638,985.3418 1332.2544,985.123 Q1331.645,984.9043 1331.02,984.9043 Q1330.2544,984.9043 1329.6138,985.2324 Q1328.9888,985.5605 1328.4888,986.3105 Q1328.0044,987.0605 1328.0044,988.0918 L1328.0044,989.1855 Q1328.0044,990.4199 1328.895,991.248 Q1329.7856,992.0605 1331.3794,992.0605 Q1332.3169,992.0605 1332.9731,991.8105 Q1333.3638,991.6543 1333.7856,991.2168 Q1334.0513,990.9512 1334.1919,990.873 Q1334.3481,990.7949 1334.5513,990.7949 Q1334.8794,990.7949 1335.1294,991.0605 Q1335.395,991.3105 1335.395,991.6543 Q1335.395,991.998 1335.0513,992.4043 Q1334.5513,992.9824 1333.7544,993.3105 Q1332.6763,993.7637 1331.3794,993.7637 Q1329.8638,993.7637 1328.6606,993.1387 Q1327.6763,992.6387 1326.9888,991.5762 Q1326.3013,990.498 1326.3013,989.2168 L1326.3013,988.0605 Q1326.3013,986.7324 1326.9106,985.5918 Q1327.5356,984.4355 1328.6294,983.8262 Q1329.7231,983.2012 1330.9575,983.2012 Q1331.6919,983.2012 1332.3325,983.373 Q1332.9888,983.5293 1333.5356,983.8887 Z " fill="#000000"/><text fill="#000000" font-family="sans-serif" font-size="14" lengthAdjust="spacing" textLength="89.4893" x="1351.27" y="993.8105">LcevcDecoder</text><line style="stroke:#181818;stroke-width:0.5;" x1="1139" x2="1620.5293" y1="1004.0137" y2="1004.0137"/><line style="stroke:#181818;stroke-width:0.5;" x1="1139" x2="1620.5293" y1="1012.0137" y2="1012.0137"/><ellipse cx="1149" cy="1026.8242" fill="#84BE84" rx="3" ry="3" style="stroke:#038048;stroke-width:1.0;"/><text fill="#000000" font-family="sans-serif" font-size="14" lengthAdjust="spacing" textLength="154.8682" x="1158" y="1031.1211">boolean createDecoder()</text><ellipse cx="1149" cy="1045.4453" fill="#84BE84" rx="3" ry="3" style="stroke:#038048;stroke-width:1.0;"/><text fill="#000000" font-family="sans-serif" font-size="14" lengthAdjust="spacing" textLength="177.3857" x="1158" y="1049.7422">void setInputFormat(Format)</text><ellipse cx="1149" cy="1064.0664" fill="#84BE84" rx="3" ry="3" style="stroke:#038048;stroke-width:1.0;"/><text fill="#000000" font-family="sans-serif" font-size="14" lengthAdjust="spacing" textLength="251.3369" x="1158" y="1068.3633">BufferDetails peekNextDecodedDetails()</text><ellipse cx="1149" cy="1082.6875" fill="#84BE84" rx="3" ry="3" style="stroke:#038048;stroke-width:1.0;"/><text fill="#000000" font-family="sans-serif" font-size="14" lengthAdjust="spacing" textLength="288.7021" x="1158" y="1086.9844">boolean removeDecodedDetails(BufferDetails)</text><ellipse cx="1149" cy="1101.3086" fill="#84BE84" rx="3" ry="3" style="stroke:#038048;stroke-width:1.0;"/><text fill="#000000" font-family="sans-serif" font-size="14" lengthAdjust="spacing" textLength="295.7227" x="1158" y="1105.6055">DecodeInformation getDecodeInformation(long)</text><ellipse cx="1149" cy="1119.9297" fill="#84BE84" rx="3" ry="3" style="stroke:#038048;stroke-width:1.0;"/><text fill="#000000" font-family="sans-serif" font-size="14" lengthAdjust="spacing" textLength="133.8682" x="1158" y="1124.2266">boolean canDecode()</text><ellipse cx="1149" cy="1138.5508" fill="#84BE84" rx="3" ry="3" style="stroke:#038048;stroke-width:1.0;"/><text fill="#000000" font-family="sans-serif" font-size="14" lengthAdjust="spacing" textLength="88.6963" x="1158" y="1142.8477">void initialise()</text><ellipse cx="1149" cy="1157.1719" fill="#84BE84" rx="3" ry="3" style="stroke:#038048;stroke-width:1.0;"/><text fill="#000000" font-family="sans-serif" font-size="14" lengthAdjust="spacing" textLength="196.0957" x="1158" y="1161.4688">void setOutputSurface(Surface)</text><ellipse cx="1149" cy="1175.793" fill="#84BE84" rx="3" ry="3" style="stroke:#038048;stroke-width:1.0;"/><text fill="#000000" font-family="sans-serif" font-size="14" lengthAdjust="spacing" textLength="257.6055" x="1158" y="1180.0898">int addNALData(long,ByteBuffer,boolean)</text><ellipse cx="1149" cy="1194.4141" fill="#84BE84" rx="3" ry="3" style="stroke:#038048;stroke-width:1.0;"/><text fill="#000000" font-family="sans-serif" font-size="14" lengthAdjust="spacing" textLength="227.2539" x="1158" y="1198.7109">int addRawData(long,byte[],boolean)</text><ellipse cx="1149" cy="1213.0352" fill="#84BE84" rx="3" ry="3" style="stroke:#038048;stroke-width:1.0;"/><text fill="#000000" font-family="sans-serif" font-size="14" lengthAdjust="spacing" textLength="457.5293" x="1158" y="1217.332">int maybeDecode(int,MediaCodec.BufferInfo,Format,MediaFormat,Image)</text><ellipse cx="1149" cy="1231.6563" fill="#84BE84" rx="3" ry="3" style="stroke:#038048;stroke-width:1.0;"/><text fill="#000000" font-family="sans-serif" font-size="14" lengthAdjust="spacing" textLength="315.1846" x="1158" y="1235.9531">boolean fillBufferLayout(Image,int,int,BufferLayout)</text><ellipse cx="1149" cy="1250.2773" fill="#84BE84" rx="3" ry="3" style="stroke:#038048;stroke-width:1.0;"/><text fill="#000000" font-family="sans-serif" font-size="14" lengthAdjust="spacing" textLength="223.3711" x="1158" y="1254.5742">int renderDecoded(int,long,boolean)</text><ellipse cx="1149" cy="1268.8984" fill="#84BE84" rx="3" ry="3" style="stroke:#038048;stroke-width:1.0;"/><text fill="#000000" font-family="sans-serif" font-size="14" lengthAdjust="spacing" textLength="147.8203" x="1158" y="1273.1953">void releaseAllFrames()</text><ellipse cx="1149" cy="1287.5195" fill="#84BE84" rx="3" ry="3" style="stroke:#038048;stroke-width:1.0;"/><text fill="#000000" font-family="sans-serif" font-size="14" lengthAdjust="spacing" textLength="68.4688" x="1158" y="1291.8164">void flush()</text><ellipse cx="1149" cy="1306.1406" fill="#84BE84" rx="3" ry="3" style="stroke:#038048;stroke-width:1.0;"/><text fill="#000000" font-family="sans-serif" font-size="14" lengthAdjust="spacing" textLength="84.8066" x="1158" y="1310.4375">void destroy()</text><ellipse cx="1149" cy="1324.7617" fill="#84BE84" rx="3" ry="3" style="stroke:#038048;stroke-width:1.0;"/><text fill="#000000" font-family="sans-serif" font-size="14" lengthAdjust="spacing" textLength="386.7842" x="1158" y="1329.0586">void onDecodeCompleted(long,int,int,long,DecodeInformation)</text><ellipse cx="1149" cy="1343.3828" fill="#84BE84" rx="3" ry="3" style="stroke:#038048;stroke-width:1.0;"/><text fill="#000000" font-family="sans-serif" font-size="14" lengthAdjust="spacing" textLength="322.9844" x="1158" y="1347.6797">void onRenderCompleted(long,int,int,long,long,long)</text><ellipse cx="1149" cy="1362.0039" fill="#84BE84" rx="3" ry="3" style="stroke:#038048;stroke-width:1.0;"/><text fill="#000000" font-family="sans-serif" font-size="14" lengthAdjust="spacing" textLength="200.7715" x="1158" y="1366.3008">void onDrainCompleted(long,int)</text></g><!--class LcevcDecoder$BufferLayout--><g id="elem_LcevcDecoder$BufferLayout"><rect codeLine="61" fill="#F1F1F1" height="141.1055" id="LcevcDecoder$BufferLayout" rx="2.5" ry="2.5" style="stroke:#181818;stroke-width:0.5;" width="208.6611" x="1070.5" y="1573.5137"/><ellipse cx="1085.5" cy="1589.5137" fill="#ADD1B2" rx="11" ry="11" style="stroke:#181818;stroke-width:1.0;"/><path d="M1088.2656,1585.3887 Q1088.4219,1585.1699 1088.6094,1585.0605 Q1088.7969,1584.9512 1089.0156,1584.9512 Q1089.3906,1584.9512 1089.625,1585.2168 Q1089.8594,1585.4668 1089.8594,1586.0762 L1089.8594,1587.5293 Q1089.8594,1588.1387 1089.625,1588.4043 Q1089.3906,1588.6699 1089.0156,1588.6699 Q1088.6719,1588.6699 1088.4688,1588.4668 Q1088.2656,1588.2793 1088.1563,1587.7637 Q1088.1094,1587.4043 1087.9219,1587.2168 Q1087.5938,1586.8418 1086.9844,1586.623 Q1086.375,1586.4043 1085.75,1586.4043 Q1084.9844,1586.4043 1084.3438,1586.7324 Q1083.7188,1587.0605 1083.2188,1587.8105 Q1082.7344,1588.5605 1082.7344,1589.5918 L1082.7344,1590.6855 Q1082.7344,1591.9199 1083.625,1592.748 Q1084.5156,1593.5605 1086.1094,1593.5605 Q1087.0469,1593.5605 1087.7031,1593.3105 Q1088.0938,1593.1543 1088.5156,1592.7168 Q1088.7813,1592.4512 1088.9219,1592.373 Q1089.0781,1592.2949 1089.2813,1592.2949 Q1089.6094,1592.2949 1089.8594,1592.5605 Q1090.125,1592.8105 1090.125,1593.1543 Q1090.125,1593.498 1089.7813,1593.9043 Q1089.2813,1594.4824 1088.4844,1594.8105 Q1087.4063,1595.2637 1086.1094,1595.2637 Q1084.5938,1595.2637 1083.3906,1594.6387 Q1082.4063,1594.1387 1081.7188,1593.0762 Q1081.0313,1591.998 1081.0313,1590.7168 L1081.0313,1589.5605 Q1081.0313,1588.2324 1081.6406,1587.0918 Q1082.2656,1585.9355 1083.3594,1585.3262 Q1084.4531,1584.7012 1085.6875,1584.7012 Q1086.4219,1584.7012 1087.0625,1584.873 Q1087.7188,1585.0293 1088.2656,1585.3887 Z " fill="#000000"/><text fill="#000000" font-family="sans-serif" font-size="14" lengthAdjust="spacing" textLength="176.6611" x="1099.5" y="1595.3105">LcevcDecoder$BufferLayout</text><line style="stroke:#181818;stroke-width:0.5;" x1="1071.5" x2="1278.1611" y1="1605.5137" y2="1605.5137"/><line style="stroke:#181818;stroke-width:0.5;" x1="1071.5" x2="1278.1611" y1="1613.5137" y2="1613.5137"/><ellipse cx="1081.5" cy="1628.3242" fill="#84BE84" rx="3" ry="3" style="stroke:#038048;stroke-width:1.0;"/><text fill="#000000" font-family="sans-serif" font-size="14" lengthAdjust="spacing" textLength="77.0205" x="1090.5" y="1632.6211">int[] offsets()</text><ellipse cx="1081.5" cy="1646.9453" fill="#84BE84" rx="3" ry="3" style="stroke:#038048;stroke-width:1.0;"/><text fill="#000000" font-family="sans-serif" font-size="14" lengthAdjust="spacing" textLength="67.6758" x="1090.5" y="1651.2422">int[] sizes()</text><ellipse cx="1081.5" cy="1665.5664" fill="#84BE84" rx="3" ry="3" style="stroke:#038048;stroke-width:1.0;"/><text fill="#000000" font-family="sans-serif" font-size="14" lengthAdjust="spacing" textLength="80.9238" x="1090.5" y="1669.8633">int[] lengths()</text><ellipse cx="1081.5" cy="1684.1875" fill="#84BE84" rx="3" ry="3" style="stroke:#038048;stroke-width:1.0;"/><text fill="#000000" font-family="sans-serif" font-size="14" lengthAdjust="spacing" textLength="119.8271" x="1090.5" y="1688.4844">int getNumPlanes()</text><ellipse cx="1081.5" cy="1702.8086" fill="#84BE84" rx="3" ry="3" style="stroke:#038048;stroke-width:1.0;"/><text fill="#000000" font-family="sans-serif" font-size="14" lengthAdjust="spacing" textLength="91.0273" x="1090.5" y="1707.1055">void resize(int)</text></g><!--class LcevcDecoder$BufferDetails--><g id="elem_LcevcDecoder$BufferDetails"><rect codeLine="69" fill="#F1F1F1" height="103.8633" id="LcevcDecoder$BufferDetails" rx="2.5" ry="2.5" style="stroke:#181818;stroke-width:0.5;" width="264.1162" x="1315" y="1592.0137"/><ellipse cx="1354.6133" cy="1608.0137" fill="#ADD1B2" rx="11" ry="11" style="stroke:#181818;stroke-width:1.0;"/><path d="M1357.379,1603.8887 Q1357.5352,1603.6699 1357.7227,1603.5605 Q1357.9102,1603.4512 1358.129,1603.4512 Q1358.504,1603.4512 1358.7383,1603.7168 Q1358.9727,1603.9668 1358.9727,1604.5762 L1358.9727,1606.0293 Q1358.9727,1606.6387 1358.7383,1606.9043 Q1358.504,1607.1699 1358.129,1607.1699 Q1357.7852,1607.1699 1357.5821,1606.9668 Q1357.379,1606.7793 1357.2696,1606.2637 Q1357.2227,1605.9043 1357.0352,1605.7168 Q1356.7071,1605.3418 1356.0977,1605.123 Q1355.4883,1604.9043 1354.8633,1604.9043 Q1354.0977,1604.9043 1353.4571,1605.2324 Q1352.8321,1605.5605 1352.3321,1606.3105 Q1351.8477,1607.0605 1351.8477,1608.0918 L1351.8477,1609.1855 Q1351.8477,1610.4199 1352.7383,1611.248 Q1353.629,1612.0605 1355.2227,1612.0605 Q1356.1602,1612.0605 1356.8165,1611.8105 Q1357.2071,1611.6543 1357.629,1611.2168 Q1357.8946,1610.9512 1358.0352,1610.873 Q1358.1915,1610.7949 1358.3946,1610.7949 Q1358.7227,1610.7949 1358.9727,1611.0605 Q1359.2383,1611.3105 1359.2383,1611.6543 Q1359.2383,1611.998 1358.8946,1612.4043 Q1358.3946,1612.9824 1357.5977,1613.3105 Q1356.5196,1613.7637 1355.2227,1613.7637 Q1353.7071,1613.7637 1352.504,1613.1387 Q1351.5196,1612.6387 1350.8321,1611.5762 Q1350.1446,1610.498 1350.1446,1609.2168 L1350.1446,1608.0605 Q1350.1446,1606.7324 1350.754,1605.5918 Q1351.379,1604.4355 1352.4727,1603.8262 Q1353.5665,1603.2012 1354.8008,1603.2012 Q1355.5352,1603.2012 1356.1758,1603.373 Q1356.8321,1603.5293 1357.379,1603.8887 Z " fill="#000000"/><text fill="#000000" font-family="sans-serif" font-size="14" lengthAdjust="spacing" textLength="177.4199" x="1374.083" y="1613.8105">LcevcDecoder$BufferDetails</text><line style="stroke:#181818;stroke-width:0.5;" x1="1316" x2="1578.1162" y1="1624.0137" y2="1624.0137"/><ellipse cx="1326" cy="1638.8242" fill="none" rx="3" ry="3" style="stroke:#038048;stroke-width:1.0;"/><text fill="#000000" font-family="sans-serif" font-size="14" lengthAdjust="spacing" textLength="52.1445" x="1335" y="1643.1211">int index</text><line style="stroke:#181818;stroke-width:0.5;" x1="1316" x2="1578.1162" y1="1650.6348" y2="1650.6348"/><ellipse cx="1326" cy="1665.4453" fill="#84BE84" rx="3" ry="3" style="stroke:#038048;stroke-width:1.0;"/><text fill="#000000" font-family="sans-serif" font-size="14" lengthAdjust="spacing" textLength="238.1162" x="1335" y="1669.7422">void set(int,MediaCodec.BufferInfo,int)</text><ellipse cx="1326" cy="1684.0664" fill="#84BE84" rx="3" ry="3" style="stroke:#038048;stroke-width:1.0;"/><text fill="#000000" font-family="sans-serif" font-size="14" lengthAdjust="spacing" textLength="70.0205" x="1335" y="1688.3633">void reset()</text></g><!--class LcevcDecoder$FrameDetails--><g id="elem_LcevcDecoder$FrameDetails"><rect codeLine="76" fill="#F1F1F1" height="420.4219" id="LcevcDecoder$FrameDetails" rx="2.5" ry="2.5" style="stroke:#181818;stroke-width:0.5;" width="370.709" x="413.5" y="1434.0137"/><ellipse cx="504.3462" cy="1450.0137" fill="#ADD1B2" rx="11" ry="11" style="stroke:#181818;stroke-width:1.0;"/><path d="M507.1118,1445.8887 Q507.2681,1445.6699 507.4556,1445.5605 Q507.6431,1445.4512 507.8618,1445.4512 Q508.2368,1445.4512 508.4712,1445.7168 Q508.7056,1445.9668 508.7056,1446.5762 L508.7056,1448.0293 Q508.7056,1448.6387 508.4712,1448.9043 Q508.2368,1449.1699 507.8618,1449.1699 Q507.5181,1449.1699 507.3149,1448.9668 Q507.1118,1448.7793 507.0024,1448.2637 Q506.9556,1447.9043 506.7681,1447.7168 Q506.4399,1447.3418 505.8306,1447.123 Q505.2212,1446.9043 504.5962,1446.9043 Q503.8306,1446.9043 503.1899,1447.2324 Q502.5649,1447.5605 502.0649,1448.3105 Q501.5806,1449.0605 501.5806,1450.0918 L501.5806,1451.1855 Q501.5806,1452.4199 502.4712,1453.248 Q503.3618,1454.0605 504.9556,1454.0605 Q505.8931,1454.0605 506.5493,1453.8105 Q506.9399,1453.6543 507.3618,1453.2168 Q507.6274,1452.9512 507.7681,1452.873 Q507.9243,1452.7949 508.1274,1452.7949 Q508.4556,1452.7949 508.7056,1453.0605 Q508.9712,1453.3105 508.9712,1453.6543 Q508.9712,1453.998 508.6274,1454.4043 Q508.1274,1454.9824 507.3306,1455.3105 Q506.2524,1455.7637 504.9556,1455.7637 Q503.4399,1455.7637 502.2368,1455.1387 Q501.2524,1454.6387 500.5649,1453.5762 Q499.8774,1452.498 499.8774,1451.2168 L499.8774,1450.0605 Q499.8774,1448.7324 500.4868,1447.5918 Q501.1118,1446.4355 502.2056,1445.8262 Q503.2993,1445.2012 504.5337,1445.2012 Q505.2681,1445.2012 505.9087,1445.373 Q506.5649,1445.5293 507.1118,1445.8887 Z " fill="#000000"/><text fill="#000000" font-family="sans-serif" font-size="14" lengthAdjust="spacing" textLength="180.5166" x="524.8462" y="1455.8105">LcevcDecoder$FrameDetails</text><line style="stroke:#181818;stroke-width:0.5;" x1="414.5" x2="783.209" y1="1466.0137" y2="1466.0137"/><ellipse cx="424.5" cy="1480.8242" fill="none" rx="3" ry="3" style="stroke:#038048;stroke-width:1.0;"/><text fill="#000000" font-family="sans-serif" font-size="14" lengthAdjust="spacing" text-decoration="underline" textLength="119.8135" x="433.5" y="1485.1211">int STATE_READY</text><ellipse cx="424.5" cy="1499.4453" fill="none" rx="3" ry="3" style="stroke:#038048;stroke-width:1.0;"/><text fill="#000000" font-family="sans-serif" font-size="14" lengthAdjust="spacing" text-decoration="underline" textLength="192.1582" x="433.5" y="1503.7422">int STATE_MISSED_RENDER</text><ellipse cx="424.5" cy="1518.0664" fill="none" rx="3" ry="3" style="stroke:#038048;stroke-width:1.0;"/><text fill="#000000" font-family="sans-serif" font-size="14" lengthAdjust="spacing" text-decoration="underline" textLength="141.5859" x="433.5" y="1522.3633">int STATE_DECODED</text><ellipse cx="424.5" cy="1536.6875" fill="none" rx="3" ry="3" style="stroke:#038048;stroke-width:1.0;"/><text fill="#000000" font-family="sans-serif" font-size="14" lengthAdjust="spacing" textLength="32.6758" x="433.5" y="1540.9844">int ID</text><ellipse cx="424.5" cy="1555.3086" fill="none" rx="3" ry="3" style="stroke:#038048;stroke-width:1.0;"/><text fill="#000000" font-family="sans-serif" font-size="14" lengthAdjust="spacing" textLength="49.0273" x="433.5" y="1559.6055">int state</text><ellipse cx="424.5" cy="1573.9297" fill="none" rx="3" ry="3" style="stroke:#038048;stroke-width:1.0;"/><text fill="#000000" font-family="sans-serif" font-size="14" lengthAdjust="spacing" textLength="148.6406" x="433.5" y="1578.2266">LcevcImage baseImage</text><ellipse cx="424.5" cy="1592.5508" fill="none" rx="3" ry="3" style="stroke:#038048;stroke-width:1.0;"/><text fill="#000000" font-family="sans-serif" font-size="14" lengthAdjust="spacing" textLength="164.2129" x="433.5" y="1596.8477">LcevcImage decodeImage</text><ellipse cx="424.5" cy="1611.1719" fill="none" rx="3" ry="3" style="stroke:#038048;stroke-width:1.0;"/><text fill="#000000" font-family="sans-serif" font-size="14" lengthAdjust="spacing" textLength="84.0479" x="433.5" y="1615.4688">int[] baseSize</text><ellipse cx="424.5" cy="1629.793" fill="none" rx="3" ry="3" style="stroke:#038048;stroke-width:1.0;"/><text fill="#000000" font-family="sans-serif" font-size="14" lengthAdjust="spacing" textLength="114.3926" x="433.5" y="1634.0898">int[] baseCropSize</text><ellipse cx="424.5" cy="1648.4141" fill="none" rx="3" ry="3" style="stroke:#038048;stroke-width:1.0;"/><text fill="#000000" font-family="sans-serif" font-size="14" lengthAdjust="spacing" textLength="124.5029" x="433.5" y="1652.7109">int[] baseCropOrigin</text><ellipse cx="424.5" cy="1667.0352" fill="none" rx="3" ry="3" style="stroke:#038048;stroke-width:1.0;"/><text fill="#000000" font-family="sans-serif" font-size="14" lengthAdjust="spacing" textLength="87.1514" x="433.5" y="1671.332">int sliceHeight</text><ellipse cx="424.5" cy="1685.6563" fill="none" rx="3" ry="3" style="stroke:#038048;stroke-width:1.0;"/><text fill="#000000" font-family="sans-serif" font-size="14" lengthAdjust="spacing" textLength="122.9238" x="433.5" y="1689.9531">Format inputFormat</text><ellipse cx="424.5" cy="1704.2773" fill="none" rx="3" ry="3" style="stroke:#038048;stroke-width:1.0;"/><text fill="#000000" font-family="sans-serif" font-size="14" lengthAdjust="spacing" textLength="98.8477" x="433.5" y="1708.5742">long timehandle</text><ellipse cx="424.5" cy="1722.8984" fill="none" rx="3" ry="3" style="stroke:#038048;stroke-width:1.0;"/><text fill="#000000" font-family="sans-serif" font-size="14" lengthAdjust="spacing" textLength="161.1094" x="433.5" y="1727.1953">BufferLayout bufferLayout</text><ellipse cx="424.5" cy="1741.5195" fill="none" rx="3" ry="3" style="stroke:#038048;stroke-width:1.0;"/><text fill="#000000" font-family="sans-serif" font-size="14" lengthAdjust="spacing" textLength="238.1436" x="433.5" y="1745.8164">DecodeInformation decodeInformation</text><line style="stroke:#181818;stroke-width:0.5;" x1="414.5" x2="783.209" y1="1753.3301" y2="1753.3301"/><ellipse cx="424.5" cy="1768.1406" fill="#84BE84" rx="3" ry="3" style="stroke:#038048;stroke-width:1.0;"/><text fill="#000000" font-family="sans-serif" font-size="14" lengthAdjust="spacing" textLength="182.0479" x="433.5" y="1772.4375">int compareTo(FrameDetails)</text><ellipse cx="424.5" cy="1786.7617" fill="#84BE84" rx="3" ry="3" style="stroke:#038048;stroke-width:1.0;"/><text fill="#000000" font-family="sans-serif" font-size="14" lengthAdjust="spacing" textLength="70.0205" x="433.5" y="1791.0586">void reset()</text><ellipse cx="424.5" cy="1805.3828" fill="#84BE84" rx="3" ry="3" style="stroke:#038048;stroke-width:1.0;"/><text fill="#000000" font-family="sans-serif" font-size="14" lengthAdjust="spacing" textLength="155.6338" x="433.5" y="1809.6797">void releaseBaseImage()</text><ellipse cx="424.5" cy="1824.0039" fill="#84BE84" rx="3" ry="3" style="stroke:#038048;stroke-width:1.0;"/><text fill="#000000" font-family="sans-serif" font-size="14" lengthAdjust="spacing" textLength="171.9785" x="433.5" y="1828.3008">void releaseDecodeImage()</text><ellipse cx="424.5" cy="1842.625" fill="#84BE84" rx="3" ry="3" style="stroke:#038048;stroke-width:1.0;"/><text fill="#000000" font-family="sans-serif" font-size="14" lengthAdjust="spacing" textLength="344.709" x="433.5" y="1846.9219">void handleBaseFormatChanged(Format,MediaFormat)</text></g><!--class LcevcTimeHandle--><g id="elem_LcevcTimeHandle"><rect codeLine="100" fill="#F1F1F1" height="103.8633" id="LcevcTimeHandle" rx="2.5" ry="2.5" style="stroke:#181818;stroke-width:0.5;" width="205.7646" x="209" y="659.0137"/><ellipse cx="251.7726" cy="675.0137" fill="#ADD1B2" rx="11" ry="11" style="stroke:#181818;stroke-width:1.0;"/><path d="M254.5382,670.8887 Q254.6944,670.6699 254.8819,670.5605 Q255.0694,670.4512 255.2882,670.4512 Q255.6632,670.4512 255.8976,670.7168 Q256.1319,670.9668 256.1319,671.5762 L256.1319,673.0293 Q256.1319,673.6387 255.8976,673.9043 Q255.6632,674.1699 255.2882,674.1699 Q254.9444,674.1699 254.7413,673.9668 Q254.5382,673.7793 254.4288,673.2637 Q254.3819,672.9043 254.1944,672.7168 Q253.8663,672.3418 253.2569,672.123 Q252.6476,671.9043 252.0226,671.9043 Q251.2569,671.9043 250.6163,672.2324 Q249.9913,672.5605 249.4913,673.3105 Q249.0069,674.0605 249.0069,675.0918 L249.0069,676.1855 Q249.0069,677.4199 249.8976,678.248 Q250.7882,679.0605 252.3819,679.0605 Q253.3194,679.0605 253.9757,678.8105 Q254.3663,678.6543 254.7882,678.2168 Q255.0538,677.9512 255.1944,677.873 Q255.3507,677.7949 255.5538,677.7949 Q255.8819,677.7949 256.1319,678.0605 Q256.3976,678.3105 256.3976,678.6543 Q256.3976,678.998 256.0538,679.4043 Q255.5538,679.9824 254.7569,680.3105 Q253.6788,680.7637 252.3819,680.7637 Q250.8663,680.7637 249.6632,680.1387 Q248.6788,679.6387 247.9913,678.5762 Q247.3038,677.498 247.3038,676.2168 L247.3038,675.0605 Q247.3038,673.7324 247.9132,672.5918 Q248.5382,671.4355 249.6319,670.8262 Q250.7257,670.2012 251.9601,670.2012 Q252.6944,670.2012 253.3351,670.373 Q253.9913,670.5293 254.5382,670.8887 Z " fill="#000000"/><text fill="#000000" font-family="sans-serif" font-size="14" lengthAdjust="spacing" textLength="112.0479" x="271.9442" y="680.8105">LcevcTimeHandle</text><line style="stroke:#181818;stroke-width:0.5;" x1="210" x2="413.7646" y1="691.0137" y2="691.0137"/><line style="stroke:#181818;stroke-width:0.5;" x1="210" x2="413.7646" y1="699.0137" y2="699.0137"/><ellipse cx="220" cy="713.8242" fill="#84BE84" rx="3" ry="3" style="stroke:#038048;stroke-width:1.0;"/><text fill="#000000" font-family="sans-serif" font-size="14" lengthAdjust="spacing" text-decoration="underline" textLength="179.7646" x="229" y="718.1211">long getTimeHandle(int,long)</text><ellipse cx="220" cy="732.4453" fill="#84BE84" rx="3" ry="3" style="stroke:#038048;stroke-width:1.0;"/><text fill="#000000" font-family="sans-serif" font-size="14" lengthAdjust="spacing" text-decoration="underline" textLength="95.7168" x="229" y="736.7422">int getCc(Long)</text><ellipse cx="220" cy="751.0664" fill="#84BE84" rx="3" ry="3" style="stroke:#038048;stroke-width:1.0;"/><text fill="#000000" font-family="sans-serif" font-size="14" lengthAdjust="spacing" text-decoration="underline" textLength="138.5098" x="229" y="755.3633">long getTimeUs(Long)</text></g><!--class Factory--><g id="elem_Factory"><rect fill="#F1F1F1" height="48" id="Factory" rx="2.5" ry="2.5" style="stroke:#181818;stroke-width:0.5;" width="78.6758" x="94.5" y="687.0137"/><ellipse cx="109.5" cy="703.0137" fill="#ADD1B2" rx="11" ry="11" style="stroke:#181818;stroke-width:1.0;"/><path d="M112.2656,698.8887 Q112.4219,698.6699 112.6094,698.5605 Q112.7969,698.4512 113.0156,698.4512 Q113.3906,698.4512 113.625,698.7168 Q113.8594,698.9668 113.8594,699.5762 L113.8594,701.0293 Q113.8594,701.6387 113.625,701.9043 Q113.3906,702.1699 113.0156,702.1699 Q112.6719,702.1699 112.4688,701.9668 Q112.2656,701.7793 112.1563,701.2637 Q112.1094,700.9043 111.9219,700.7168 Q111.5938,700.3418 110.9844,700.123 Q110.375,699.9043 109.75,699.9043 Q108.9844,699.9043 108.3438,700.2324 Q107.7188,700.5605 107.2188,701.3105 Q106.7344,702.0605 106.7344,703.0918 L106.7344,704.1855 Q106.7344,705.4199 107.625,706.248 Q108.5156,707.0605 110.1094,707.0605 Q111.0469,707.0605 111.7031,706.8105 Q112.0938,706.6543 112.5156,706.2168 Q112.7813,705.9512 112.9219,705.873 Q113.0781,705.7949 113.2813,705.7949 Q113.6094,705.7949 113.8594,706.0605 Q114.125,706.3105 114.125,706.6543 Q114.125,706.998 113.7813,707.4043 Q113.2813,707.9824 112.4844,708.3105 Q111.4063,708.7637 110.1094,708.7637 Q108.5938,708.7637 107.3906,708.1387 Q106.4063,707.6387 105.7188,706.5762 Q105.0313,705.498 105.0313,704.2168 L105.0313,703.0605 Q105.0313,701.7324 105.6406,700.5918 Q106.2656,699.4355 107.3594,698.8262 Q108.4531,698.2012 109.6875,698.2012 Q110.4219,698.2012 111.0625,698.373 Q111.7188,698.5293 112.2656,698.8887 Z " fill="#000000"/><text fill="#000000" font-family="sans-serif" font-size="14" lengthAdjust="spacing" textLength="46.6758" x="123.5" y="708.8105">Factory</text><line style="stroke:#181818;stroke-width:0.5;" x1="95.5" x2="172.1758" y1="719.0137" y2="719.0137"/><line style="stroke:#181818;stroke-width:0.5;" x1="95.5" x2="172.1758" y1="727.0137" y2="727.0137"/></g><!--class Comparable--><g id="elem_Comparable"><rect fill="#F1F1F1" height="48" id="Comparable" rx="2.5" ry="2.5" style="stroke:#181818;stroke-width:0.5;" width="108.2617" x="94" y="1149.0137"/><ellipse cx="109" cy="1165.0137" fill="#ADD1B2" rx="11" ry="11" style="stroke:#181818;stroke-width:1.0;"/><path d="M111.7656,1160.8887 Q111.9219,1160.6699 112.1094,1160.5605 Q112.2969,1160.4512 112.5156,1160.4512 Q112.8906,1160.4512 113.125,1160.7168 Q113.3594,1160.9668 113.3594,1161.5762 L113.3594,1163.0293 Q113.3594,1163.6387 113.125,1163.9043 Q112.8906,1164.1699 112.5156,1164.1699 Q112.1719,1164.1699 111.9688,1163.9668 Q111.7656,1163.7793 111.6563,1163.2637 Q111.6094,1162.9043 111.4219,1162.7168 Q111.0938,1162.3418 110.4844,1162.123 Q109.875,1161.9043 109.25,1161.9043 Q108.4844,1161.9043 107.8438,1162.2324 Q107.2188,1162.5605 106.7188,1163.3105 Q106.2344,1164.0605 106.2344,1165.0918 L106.2344,1166.1855 Q106.2344,1167.4199 107.125,1168.248 Q108.0156,1169.0605 109.6094,1169.0605 Q110.5469,1169.0605 111.2031,1168.8105 Q111.5938,1168.6543 112.0156,1168.2168 Q112.2813,1167.9512 112.4219,1167.873 Q112.5781,1167.7949 112.7813,1167.7949 Q113.1094,1167.7949 113.3594,1168.0605 Q113.625,1168.3105 113.625,1168.6543 Q113.625,1168.998 113.2813,1169.4043 Q112.7813,1169.9824 111.9844,1170.3105 Q110.9063,1170.7637 109.6094,1170.7637 Q108.0938,1170.7637 106.8906,1170.1387 Q105.9063,1169.6387 105.2188,1168.5762 Q104.5313,1167.498 104.5313,1166.2168 L104.5313,1165.0605 Q104.5313,1163.7324 105.1406,1162.5918 Q105.7656,1161.4355 106.8594,1160.8262 Q107.9531,1160.2012 109.1875,1160.2012 Q109.9219,1160.2012 110.5625,1160.373 Q111.2188,1160.5293 111.7656,1160.8887 Z " fill="#000000"/><text fill="#000000" font-family="sans-serif" font-size="14" lengthAdjust="spacing" textLength="76.2617" x="123" y="1170.8105">Comparable</text><line style="stroke:#181818;stroke-width:0.5;" x1="95" x2="201.2617" y1="1181.0137" y2="1181.0137"/><line style="stroke:#181818;stroke-width:0.5;" x1="95" x2="201.2617" y1="1189.0137" y2="1189.0137"/></g><!--class LcevcNativeAdapter--><g id="elem_LcevcNativeAdapter"><rect fill="#F1F1F1" height="48" id="LcevcNativeAdapter" rx="2.5" ry="2.5" style="stroke:#181818;stroke-width:0.5;" width="157.2891" x="1464.5" y="687.0137"/><ellipse cx="1479.5" cy="703.0137" fill="#ADD1B2" rx="11" ry="11" style="stroke:#181818;stroke-width:1.0;"/><path d="M1482.2656,698.8887 Q1482.4219,698.6699 1482.6094,698.5605 Q1482.7969,698.4512 1483.0156,698.4512 Q1483.3906,698.4512 1483.625,698.7168 Q1483.8594,698.9668 1483.8594,699.5762 L1483.8594,701.0293 Q1483.8594,701.6387 1483.625,701.9043 Q1483.3906,702.1699 1483.0156,702.1699 Q1482.6719,702.1699 1482.4688,701.9668 Q1482.2656,701.7793 1482.1563,701.2637 Q1482.1094,700.9043 1481.9219,700.7168 Q1481.5938,700.3418 1480.9844,700.123 Q1480.375,699.9043 1479.75,699.9043 Q1478.9844,699.9043 1478.3438,700.2324 Q1477.7188,700.5605 1477.2188,701.3105 Q1476.7344,702.0605 1476.7344,703.0918 L1476.7344,704.1855 Q1476.7344,705.4199 1477.625,706.248 Q1478.5156,707.0605 1480.1094,707.0605 Q1481.0469,707.0605 1481.7031,706.8105 Q1482.0938,706.6543 1482.5156,706.2168 Q1482.7813,705.9512 1482.9219,705.873 Q1483.0781,705.7949 1483.2813,705.7949 Q1483.6094,705.7949 1483.8594,706.0605 Q1484.125,706.3105 1484.125,706.6543 Q1484.125,706.998 1483.7813,707.4043 Q1483.2813,707.9824 1482.4844,708.3105 Q1481.4063,708.7637 1480.1094,708.7637 Q1478.5938,708.7637 1477.3906,708.1387 Q1476.4063,707.6387 1475.7188,706.5762 Q1475.0313,705.498 1475.0313,704.2168 L1475.0313,703.0605 Q1475.0313,701.7324 1475.6406,700.5918 Q1476.2656,699.4355 1477.3594,698.8262 Q1478.4531,698.2012 1479.6875,698.2012 Q1480.4219,698.2012 1481.0625,698.373 Q1481.7188,698.5293 1482.2656,698.8887 Z " fill="#000000"/><text fill="#000000" font-family="sans-serif" font-size="14" lengthAdjust="spacing" textLength="125.2891" x="1493.5" y="708.8105">LcevcNativeAdapter</text><line style="stroke:#181818;stroke-width:0.5;" x1="1465.5" x2="1620.7891" y1="719.0137" y2="719.0137"/><line style="stroke:#181818;stroke-width:0.5;" x1="1465.5" x2="1620.7891" y1="727.0137" y2="727.0137"/></g><!--class DefaultRenderersFactory--><g id="elem_DefaultRenderersFactory"><rect fill="#F1F1F1" height="48" id="DefaultRenderersFactory" rx="2.5" ry="2.5" style="stroke:#181818;stroke-width:0.5;" width="188.3994" x="1024" y="178.0137"/><ellipse cx="1039" cy="194.0137" fill="#ADD1B2" rx="11" ry="11" style="stroke:#181818;stroke-width:1.0;"/><path d="M1041.7656,189.8887 Q1041.9219,189.6699 1042.1094,189.5605 Q1042.2969,189.4512 1042.5156,189.4512 Q1042.8906,189.4512 1043.125,189.7168 Q1043.3594,189.9668 1043.3594,190.5762 L1043.3594,192.0293 Q1043.3594,192.6387 1043.125,192.9043 Q1042.8906,193.1699 1042.5156,193.1699 Q1042.1719,193.1699 1041.9688,192.9668 Q1041.7656,192.7793 1041.6563,192.2637 Q1041.6094,191.9043 1041.4219,191.7168 Q1041.0938,191.3418 1040.4844,191.123 Q1039.875,190.9043 1039.25,190.9043 Q1038.4844,190.9043 1037.8438,191.2324 Q1037.2188,191.5605 1036.7188,192.3105 Q1036.2344,193.0605 1036.2344,194.0918 L1036.2344,195.1855 Q1036.2344,196.4199 1037.125,197.248 Q1038.0156,198.0605 1039.6094,198.0605 Q1040.5469,198.0605 1041.2031,197.8105 Q1041.5938,197.6543 1042.0156,197.2168 Q1042.2813,196.9512 1042.4219,196.873 Q1042.5781,196.7949 1042.7813,196.7949 Q1043.1094,196.7949 1043.3594,197.0605 Q1043.625,197.3105 1043.625,197.6543 Q1043.625,197.998 1043.2813,198.4043 Q1042.7813,198.9824 1041.9844,199.3105 Q1040.9063,199.7637 1039.6094,199.7637 Q1038.0938,199.7637 1036.8906,199.1387 Q1035.9063,198.6387 1035.2188,197.5762 Q1034.5313,196.498 1034.5313,195.2168 L1034.5313,194.0605 Q1034.5313,192.7324 1035.1406,191.5918 Q1035.7656,190.4355 1036.8594,189.8262 Q1037.9531,189.2012 1039.1875,189.2012 Q1039.9219,189.2012 1040.5625,189.373 Q1041.2188,189.5293 1041.7656,189.8887 Z " fill="#000000"/><text fill="#000000" font-family="sans-serif" font-size="14" lengthAdjust="spacing" textLength="156.3994" x="1053" y="199.8105">DefaultRenderersFactory</text><line style="stroke:#181818;stroke-width:0.5;" x1="1025" x2="1211.3994" y1="210.0137" y2="210.0137"/><line style="stroke:#181818;stroke-width:0.5;" x1="1025" x2="1211.3994" y1="218.0137" y2="218.0137"/></g><!--class MediaCodecAdapter--><g id="elem_MediaCodecAdapter"><rect fill="#F1F1F1" height="48" id="MediaCodecAdapter" rx="2.5" ry="2.5" style="stroke:#181818;stroke-width:0.5;" width="159.6338" x="829" y="178.0137"/><ellipse cx="844" cy="194.0137" fill="#ADD1B2" rx="11" ry="11" style="stroke:#181818;stroke-width:1.0;"/><path d="M846.7656,189.8887 Q846.9219,189.6699 847.1094,189.5605 Q847.2969,189.4512 847.5156,189.4512 Q847.8906,189.4512 848.125,189.7168 Q848.3594,189.9668 848.3594,190.5762 L848.3594,192.0293 Q848.3594,192.6387 848.125,192.9043 Q847.8906,193.1699 847.5156,193.1699 Q847.1719,193.1699 846.9688,192.9668 Q846.7656,192.7793 846.6563,192.2637 Q846.6094,191.9043 846.4219,191.7168 Q846.0938,191.3418 845.4844,191.123 Q844.875,190.9043 844.25,190.9043 Q843.4844,190.9043 842.8438,191.2324 Q842.2188,191.5605 841.7188,192.3105 Q841.2344,193.0605 841.2344,194.0918 L841.2344,195.1855 Q841.2344,196.4199 842.125,197.248 Q843.0156,198.0605 844.6094,198.0605 Q845.5469,198.0605 846.2031,197.8105 Q846.5938,197.6543 847.0156,197.2168 Q847.2813,196.9512 847.4219,196.873 Q847.5781,196.7949 847.7813,196.7949 Q848.1094,196.7949 848.3594,197.0605 Q848.625,197.3105 848.625,197.6543 Q848.625,197.998 848.2813,198.4043 Q847.7813,198.9824 846.9844,199.3105 Q845.9063,199.7637 844.6094,199.7637 Q843.0938,199.7637 841.8906,199.1387 Q840.9063,198.6387 840.2188,197.5762 Q839.5313,196.498 839.5313,195.2168 L839.5313,194.0605 Q839.5313,192.7324 840.1406,191.5918 Q840.7656,190.4355 841.8594,189.8262 Q842.9531,189.2012 844.1875,189.2012 Q844.9219,189.2012 845.5625,189.373 Q846.2188,189.5293 846.7656,189.8887 Z " fill="#000000"/><text fill="#000000" font-family="sans-serif" font-size="14" lengthAdjust="spacing" textLength="127.6338" x="858" y="199.8105">MediaCodecAdapter</text><line style="stroke:#181818;stroke-width:0.5;" x1="830" x2="987.6338" y1="210.0137" y2="210.0137"/><line style="stroke:#181818;stroke-width:0.5;" x1="830" x2="987.6338" y1="218.0137" y2="218.0137"/></g><!--reverse link DefaultRenderersFactory to LcevcRenderersFactory--><g id="link_DefaultRenderersFactory_LcevcRenderersFactory"><path codeLine="108" d="M1157.8782,238.3908 C1183.5282,262.0608 1208.42,288.8737 1231,330.0137 C1299.15,454.1637 1327.63,625.2837 1336.09,686.8137 " fill="none" id="DefaultRenderersFactory-backto-LcevcRenderersFactory" style="stroke:#181818;stroke-width:1.0;"/><polygon fill="none" points="1144.65,226.1837,1153.8092,242.8002,1161.9473,233.9814,1144.65,226.1837" style="stroke:#181818;stroke-width:1.0;"/></g><!--reverse link Factory to LcevcMediaCodecAdapterFactory--><g id="link_Factory_LcevcMediaCodecAdapterFactory"><path codeLine="109" d="M139.0563,753.0607 C144.3463,792.1107 156.53,854.4637 192,912.0137 C252.65,1010.4137 360.46,1095.3237 423.13,1139.5137 " fill="none" id="Factory-backto-LcevcMediaCodecAdapterFactory" style="stroke:#181818;stroke-width:1.0;stroke-dasharray:7.0,7.0;"/><polygon fill="none" points="136.64,735.2237,133.1106,753.8662,145.002,752.2553,136.64,735.2237" style="stroke:#181818;stroke-width:1.0;"/></g><!--reverse link MediaCodecAdapter to LcevcSynchronousMediaCodecAdapter--><g id="link_MediaCodecAdapter_LcevcSynchronousMediaCodecAdapter"><path codeLine="110" d="M891.813,242.6253 C869.993,292.8953 823.52,400.0037 775.92,509.7037 " fill="none" id="MediaCodecAdapter-backto-LcevcSynchronousMediaCodecAdapter" style="stroke:#181818;stroke-width:1.0;stroke-dasharray:7.0,7.0;"/><polygon fill="none" points="898.98,226.1137,886.3091,240.2363,897.3169,245.0143,898.98,226.1137" style="stroke:#181818;stroke-width:1.0;"/></g><!--reverse link LcevcSynchronousMediaCodecAdapter to LcevcSynchronousMediaCodecAdapter$Factory--><g id="link_LcevcSynchronousMediaCodecAdapter_LcevcSynchronousMediaCodecAdapter$Factory"><path codeLine="111" d="M792.524,926.5134 C834.384,1013.2534 872.07,1091.3537 895.14,1139.1637 " fill="none" id="LcevcSynchronousMediaCodecAdapter-backto-LcevcSynchronousMediaCodecAdapter$Factory" style="stroke:#181818;stroke-width:1.0;stroke-dasharray:7.0,7.0;"/><ellipse cx="789.047" cy="919.3086" fill="#FFFFFF" rx="8" ry="8" style="stroke:#181818;stroke-width:1.0;"/><line style="stroke:#181818;stroke-width:1.0;" x1="792.524" x2="785.57" y1="926.5134" y2="912.1037"/><line style="stroke:#181818;stroke-width:1.0;" x1="781.8421" x2="796.2519" y1="922.7856" y2="915.8315"/></g><!--reverse link Factory to LcevcSynchronousMediaCodecAdapter$Factory--><g id="link_Factory_LcevcSynchronousMediaCodecAdapter$Factory"><path codeLine="112" d="M133.0081,753.2034 C132.7681,795.6134 139.06,867.3937 192,912.0137 C283.14,988.8237 618.56,918.3637 725,972.0137 C801,1010.3237 861.87,1093.2337 891.46,1139.3737 " fill="none" id="Factory-backto-LcevcSynchronousMediaCodecAdapter$Factory" style="stroke:#181818;stroke-width:1.0;stroke-dasharray:7.0,7.0;"/><polygon fill="none" points="133.11,735.2037,127.0082,753.1694,139.008,753.2373,133.11,735.2037" style="stroke:#181818;stroke-width:1.0;"/></g><!--reverse link LcevcNativeAdapter to LcevcDecoder--><g id="link_LcevcNativeAdapter_LcevcDecoder"><path codeLine="113" d="M1528.795,752.1089 C1513.195,796.1089 1483.89,878.8237 1450.92,971.8837 " fill="none" id="LcevcNativeAdapter-backto-LcevcDecoder" style="stroke:#181818;stroke-width:1.0;"/><polygon fill="none" points="1534.81,735.1437,1523.14,750.104,1534.4501,754.1139,1534.81,735.1437" style="stroke:#181818;stroke-width:1.0;"/></g><!--reverse link LcevcDecoder to LcevcDecoder$BufferLayout--><g id="link_LcevcDecoder_LcevcDecoder$BufferLayout"><path codeLine="114" d="M1286.0617,1388.9343 C1254.9917,1460.0143 1228.45,1520.7237 1205.39,1573.4937 " fill="none" id="LcevcDecoder-backto-LcevcDecoder$BufferLayout" style="stroke:#181818;stroke-width:1.0;stroke-dasharray:7.0,7.0;"/><ellipse cx="1289.2658" cy="1381.604" fill="#FFFFFF" rx="8" ry="8" style="stroke:#181818;stroke-width:1.0;"/><line style="stroke:#181818;stroke-width:1.0;" x1="1286.0617" x2="1292.47" y1="1388.9343" y2="1374.2737"/><line style="stroke:#181818;stroke-width:1.0;" x1="1281.9355" x2="1296.5961" y1="1378.3998" y2="1384.8081"/></g><!--reverse link LcevcDecoder to LcevcDecoder$BufferDetails--><g id="link_LcevcDecoder_LcevcDecoder$BufferDetails"><path codeLine="115" d="M1410.8725,1390.1129 C1422.2525,1469.7829 1432.14,1539.0037 1439.65,1591.5937 " fill="none" id="LcevcDecoder-backto-LcevcDecoder$BufferDetails" style="stroke:#181818;stroke-width:1.0;stroke-dasharray:7.0,7.0;"/><ellipse cx="1409.7412" cy="1382.1933" fill="#FFFFFF" rx="8" ry="8" style="stroke:#181818;stroke-width:1.0;"/><line style="stroke:#181818;stroke-width:1.0;" x1="1410.8725" x2="1408.61" y1="1390.1129" y2="1374.2737"/><line style="stroke:#181818;stroke-width:1.0;" x1="1401.8216" x2="1417.6608" y1="1383.3245" y2="1381.0621"/></g><!--reverse link LcevcDecoder to LcevcDecoder$FrameDetails--><g id="link_LcevcDecoder_LcevcDecoder$FrameDetails"><path codeLine="116" d="M1124.4638,1357.3277 C1111.0838,1366.0877 1111.13,1365.8637 1098,1374.0137 C996.83,1436.8337 879.82,1500.3637 784.54,1549.8937 " fill="none" id="LcevcDecoder-backto-LcevcDecoder$FrameDetails" style="stroke:#181818;stroke-width:1.0;stroke-dasharray:7.0,7.0;"/><ellipse cx="1131.1569" cy="1352.9457" fill="#FFFFFF" rx="8" ry="8" style="stroke:#181818;stroke-width:1.0;"/><line style="stroke:#181818;stroke-width:1.0;" x1="1124.4638" x2="1137.85" y1="1357.3277" y2="1348.5637"/><line style="stroke:#181818;stroke-width:1.0;" x1="1126.7749" x2="1135.5389" y1="1346.2526" y2="1359.6388"/></g><!--reverse link Comparable to LcevcDecoder$FrameDetails--><g id="link_Comparable_LcevcDecoder$FrameDetails"><path codeLine="117" d="M154.8847,1214.8625 C162.1047,1254.5125 178.04,1318.7637 220,1374.0137 C271.49,1441.8037 344.9,1499.4037 413.43,1543.7037 " fill="none" id="Comparable-backto-LcevcDecoder$FrameDetails" style="stroke:#181818;stroke-width:1.0;stroke-dasharray:7.0,7.0;"/><polygon fill="none" points="151.66,1197.1537,148.9817,1215.9374,160.7876,1213.7876,151.66,1197.1537" style="stroke:#181818;stroke-width:1.0;"/></g><!--SRC=[jLRDSzeu5B_pL_YGWpEblkor5y1EoomX392ToNGw6M4_4ytA4fLbDcot_tkV91lB7uIGT0yardk_z_qXnOpakHUBBDXpiIS1Ys4V1md48W4PpFHf2Ho_GUOt95P27hmVWv-3-BpSBIIKJF0SZnAoKo1h-GzUX-d54eY2ykHt-C54y9Hk2qaK5VmQNJZZmxYWBB52nkAFNA5e_DFR2C60S2-CnlUVNSPAISgttcmwNewM3u-BqUJFqUVeSJwwZNfWu_lfB7nSFooYyxwOVAmEF7wIWeiYxqQlFQmSum19laHH9s3_6W6KAo-1xmKKCEMxGesBD0KvnV8yj_btXMe1Qfj1HKx5TLMA6o4pehmjA2jfpqRh-A30IcYsOzX7Urs0QxaVKNlIXzqBcdZj63LpMFsOuDjX1xs2k92zCXDvs2cXm-sAIi2Kvz1sP5ZMuYnEApo2KbRaJtvRfYRac1r-8qa6vKmbCvehuAZh17tuXV24WMoeC3wi2fcI6FpolmjO4AqAkohtnuKMTvb_qGJ4AYOCU_WMQr2bVO5mD4es3AoGhHJsUfoR2AOPsK9TO7Eqmkzl_wjBLiEbYy1O3-sXCMTMRSbfLCbqKJa2zf_fObFs41IXBFTs07_FuLbP-QGa6pML0GcPs4CBqD2YqPQlsrCRmfXqaZj4l-gqe_U4Mr3jEULKKQnik-TEDOpU5oH9vgDPI1Gn5eRrgBepK2ANv9yQkK7arszjL4OEcp9aCo2zQsTeapfqLi_GD9GRO4ePio8pSX25yWtYk0LSLcLScl4f4twSprF3F6BC35tkdvhW178bnQ4cY3Bd4v7j68vOubSRfTvCdT8vqdQ-Nv8-_d5jIa9vL-Z2thzoCsO60NLy_UQ9DCKcoQiR12av_HVSCmE-LKz7YkxFUP4j6E5kxYHeEV_DZbM3LNg6Fxosd3P-ePsQ6rrZZGkN-60wmNNXUDzhNrRhqJfwN4QZyA6VTJjThQ8G4VCmMlP3mcXo5qPX6Tsq-j10m6_ZZLso6snEyzKaMxyhXYsDXgumxGt2H8fTB_5EqYtbbM56O_W2TFkaa58-06Yz-P2eEyrJD8CdSmqTTs3PGnldqBl8aZQbD8qLsH49Q-6xQU-Ki3ckuoeh7KvO9wRcMPUra0rdWeGjJaztzRowLzQO2NiXDpl4f0c7ekOttWQDNa3O9FPdRPQhuZul-Tgj0UgJ6Czpa6cF_mZWMUmOEQ1F8QIaOAhpFl_qtyUFbptf1wVGjSeWUDjh_mN_3I4sizozyyzRVEb1CNZxI_p3U-nU_Rw4lijCGfdLCiVssaETr7ETKQx3mQiUKsTJrNVp_2-gomtoctMxo-cawedPPVhT_8gYzcd-1G00]--></g></svg>